<svg xmlns="http://www.w3.org/2000/svg" version="1.1" xmlns:xlink="http://www.w3.org/1999/xlink" xmlns:svgjs="http://svgjs.dev/svgjs" width="1000" height="1000" viewBox="0 0 1000 1000"><rect width="1000" height="1000" fill="#000000"></rect><g transform="matrix(0.7,0,0,0.7,150.07466666666664,382.26093333333336)"><svg viewBox="0 0 375 126" data-background-color="#ffffff" preserveAspectRatio="xMidYMid meet" height="336" width="1000" xmlns="http://www.w3.org/2000/svg" xmlns:xlink="http://www.w3.org/1999/xlink"><g id="tight-bounds" transform="matrix(1,0,0,1,-0.03976036071776434,0.07452514648434772)"><svg viewBox="0 0 375.07952880859375 125.85079956054688" height="125.85079956054688" width="375.07952880859375"><g><svg></svg></g><g><svg viewBox="0 0 375.07952880859375 125.85079956054688" height="125.85079956054688" width="375.07952880859375"><g transform="matrix(1,0,0,1,-10.220239639282227,-62.732025146484375)"><path xmlns="http://www.w3.org/2000/svg" d="M10.22 184.468v-121.736h375.08v121.736l-26.415 0 0-3.907h22.508v-113.922h-367.266v113.922l127.772 0 0 3.907z" fill="#ffffff" fill-rule="nonzero" stroke="none" stroke-width="1" stroke-linecap="butt" stroke-linejoin="miter" stroke-miterlimit="10" stroke-dasharray="" stroke-dashoffset="0" font-family="none" font-weight="none" font-size="none" text-anchor="none" style="mix-blend-mode: normal" data-fill-palette-color="tertiary"></path><g><path xmlns="http://www.w3.org/2000/svg" d="M159.622 176.71h2.463v2.968h-2.463v4.42c0 0.528 0.088 0.912 0.264 1.152 0.176 0.243 0.498 0.365 0.967 0.365v0h1.232v2.572c-0.352 0.117-0.806 0.213-1.364 0.286-0.557 0.073-1.041 0.11-1.451 0.11v0c-1.29 0-2.282-0.235-2.977-0.704-0.698-0.469-1.047-1.268-1.046-2.396v0-5.805h-1.627v-2.968h1.803l0.945-3.518h3.254zM170.11 176.446c2.037 0 3.639 0.516 4.806 1.548 1.164 1.035 1.746 2.542 1.746 4.521v0c0 1.979-0.582 3.484-1.746 4.516-1.167 1.035-2.769 1.552-4.806 1.552v0c-2.037 0-3.635-0.513-4.793-1.539-1.158-1.026-1.737-2.536-1.737-4.529v0c0-1.993 0.579-3.503 1.737-4.53 1.158-1.026 2.756-1.539 4.793-1.539zM170.11 179.415c-1.436 0-2.155 0.828-2.155 2.484v0 1.253c0 1.642 0.718 2.462 2.155 2.463v0c1.451 0 2.177-0.821 2.176-2.463v0-1.253c0-1.656-0.726-2.484-2.176-2.484zM190.491 177.788c0.835-0.894 1.92-1.341 3.254-1.342v0c1.568 0 2.778 0.509 3.628 1.526 0.85 1.02 1.275 2.527 1.275 4.521v0c0 2.008-0.425 3.525-1.275 4.551-0.85 1.026-2.059 1.539-3.628 1.539v0c-1.612 0-2.844-0.638-3.694-1.913v0l-0.374 1.649h-3.561v-15.94h4.375zM192.382 179.678c-0.645 0-1.129 0.232-1.451 0.695-0.322 0.46-0.484 1.057-0.484 1.79v0 0.725c0 0.733 0.161 1.327 0.484 1.781 0.322 0.454 0.806 0.682 1.451 0.682v0c1.261 0 1.891-0.748 1.891-2.243v0-1.165c0-1.51-0.63-2.265-1.891-2.265zM206.761 176.446c2.125 0 3.749 0.498 4.872 1.495 1.12 0.997 1.68 2.521 1.68 4.574v0 0.747h-8.707c0 0.835 0.188 1.466 0.563 1.891 0.372 0.425 0.962 0.638 1.768 0.638v0c0.733 0 1.272-0.154 1.618-0.462 0.343-0.308 0.514-0.718 0.514-1.231v0h4.244c0 1.407-0.535 2.506-1.605 3.298-1.07 0.792-2.631 1.187-4.683 1.187v0c-2.155 0-3.826-0.503-5.013-1.508-1.187-1.003-1.781-2.523-1.781-4.56v0c0-1.993 0.579-3.503 1.737-4.53 1.158-1.026 2.756-1.539 4.793-1.539zM206.937 179.239c-1.378 0-2.147 0.652-2.309 1.956v0h4.265c0-0.601-0.171-1.077-0.514-1.429-0.346-0.352-0.827-0.528-1.442-0.527zM228.747 176.446c1.905 0 3.449 0.406 4.63 1.218 1.178 0.815 1.768 2.058 1.768 3.729v0h-4.243c0-1.319-0.718-1.979-2.155-1.978v0c-1.436 0-2.155 0.828-2.155 2.484v0 1.253c0 1.642 0.748 2.462 2.243 2.463v0c1.495 0 2.243-0.674 2.243-2.023v0h4.067c0 1.686-0.589 2.939-1.768 3.76-1.181 0.821-2.725 1.231-4.63 1.231v0c-2.037 0-3.635-0.513-4.793-1.539-1.158-1.026-1.737-2.536-1.737-4.529v0c0-1.993 0.579-3.503 1.737-4.53 1.158-1.026 2.756-1.539 4.793-1.539zM243.412 176.446c2.037 0 3.639 0.516 4.806 1.548 1.164 1.035 1.746 2.542 1.746 4.521v0c0 1.979-0.582 3.484-1.746 4.516-1.167 1.035-2.769 1.552-4.806 1.552v0c-2.037 0-3.635-0.513-4.793-1.539-1.158-1.026-1.737-2.536-1.737-4.529v0c0-1.993 0.579-3.503 1.737-4.53 1.158-1.026 2.756-1.539 4.793-1.539zM243.412 179.415c-1.436 0-2.155 0.828-2.155 2.484v0 1.253c0 1.642 0.718 2.462 2.155 2.463v0c1.451 0 2.177-0.821 2.176-2.463v0-1.253c0-1.656-0.726-2.484-2.176-2.484zM260.077 176.446c1.348 0 2.36 0.374 3.035 1.122 0.674 0.748 1.011 1.825 1.011 3.232v0 7.519h-4.375v-6.992c0-0.498-0.129-0.899-0.387-1.2-0.255-0.299-0.617-0.449-1.086-0.449v0c-0.542 0-0.982 0.176-1.32 0.528-0.337 0.352-0.506 0.784-0.505 1.297v0 6.816h-4.376v-11.609h3.584l0.286 1.759c0.454-0.616 1.052-1.107 1.794-1.473 0.739-0.366 1.519-0.55 2.339-0.55zM274.742 176.446c1.348 0 2.36 0.374 3.034 1.122 0.674 0.748 1.011 1.825 1.012 3.232v0 7.519h-4.376v-6.992c0-0.498-0.128-0.899-0.382-1.2-0.258-0.299-0.621-0.449-1.091-0.449v0c-0.542 0-0.982 0.176-1.319 0.528-0.337 0.352-0.506 0.784-0.506 1.297v0 6.816h-4.375v-11.609h3.584l0.286 1.759c0.454-0.616 1.052-1.107 1.794-1.473 0.739-0.366 1.519-0.55 2.339-0.55zM287.406 176.446c2.125 0 3.749 0.498 4.872 1.495 1.12 0.997 1.68 2.521 1.68 4.574v0 0.747h-8.706c0 0.835 0.186 1.466 0.558 1.891 0.375 0.425 0.966 0.638 1.772 0.638v0c0.733 0 1.272-0.154 1.618-0.462 0.343-0.308 0.514-0.718 0.515-1.231v0h4.243c0 1.407-0.535 2.506-1.605 3.298-1.07 0.792-2.631 1.187-4.683 1.187v0c-2.155 0-3.826-0.503-5.013-1.508-1.187-1.003-1.781-2.523-1.781-4.56v0c0-1.993 0.579-3.503 1.737-4.53 1.158-1.026 2.756-1.539 4.793-1.539zM287.582 179.239c-1.378 0-2.147 0.652-2.308 1.956v0h4.265c0-0.601-0.173-1.077-0.519-1.429-0.343-0.352-0.822-0.528-1.438-0.527zM302.071 176.446c1.905 0 3.449 0.406 4.63 1.218 1.178 0.815 1.768 2.058 1.768 3.729v0h-4.243c0-1.319-0.718-1.979-2.155-1.978v0c-1.436 0-2.155 0.828-2.154 2.484v0 1.253c0 1.642 0.748 2.462 2.242 2.463v0c1.495 0 2.243-0.674 2.243-2.023v0h4.067c0 1.686-0.589 2.939-1.768 3.76-1.181 0.821-2.725 1.231-4.63 1.231v0c-2.037 0-3.635-0.513-4.793-1.539-1.158-1.026-1.737-2.536-1.737-4.529v0c0-1.993 0.579-3.503 1.737-4.53 1.158-1.026 2.756-1.539 4.793-1.539zM316.01 176.71h2.463v2.968h-2.463v4.42c0 0.528 0.088 0.912 0.264 1.152 0.176 0.243 0.498 0.365 0.968 0.365v0h1.231v2.572c-0.352 0.117-0.806 0.213-1.363 0.286-0.557 0.073-1.041 0.11-1.451 0.11v0c-1.29 0-2.282-0.235-2.977-0.704-0.698-0.469-1.047-1.268-1.047-2.396v0-5.805h-1.627v-2.968h1.803l0.946-3.518h3.253zM326.498 176.446c2.125 0 3.749 0.498 4.872 1.495 1.12 0.997 1.68 2.521 1.68 4.574v0 0.747h-8.707c0 0.835 0.188 1.466 0.563 1.891 0.372 0.425 0.962 0.638 1.768 0.638v0c0.733 0 1.272-0.154 1.618-0.462 0.343-0.308 0.514-0.718 0.514-1.231v0h4.244c0 1.407-0.535 2.506-1.605 3.298-1.07 0.792-2.631 1.187-4.683 1.187v0c-2.155 0-3.826-0.503-5.013-1.508-1.187-1.003-1.781-2.523-1.781-4.56v0c0-1.993 0.579-3.503 1.737-4.53 1.158-1.026 2.756-1.539 4.793-1.539zM326.674 179.239c-1.378 0-2.147 0.652-2.309 1.956v0h4.266c0-0.601-0.171-1.077-0.515-1.429-0.346-0.352-0.827-0.528-1.442-0.527zM347.165 188.319h-3.562l-0.374-1.649c-0.85 1.275-2.081 1.913-3.693 1.913v0c-1.568 0-2.778-0.513-3.628-1.539-0.85-1.026-1.275-2.543-1.275-4.551v0c0-1.993 0.425-3.5 1.275-4.521 0.85-1.017 2.059-1.526 3.628-1.526v0c1.334 0 2.418 0.447 3.254 1.342v0-5.409h4.375zM340.899 179.678c-1.261 0-1.891 0.755-1.891 2.265v0 1.165c0 1.495 0.63 2.243 1.891 2.243v0c0.645 0 1.129-0.227 1.451-0.682 0.322-0.454 0.484-1.048 0.484-1.781v0-0.725c0-0.733-0.161-1.329-0.484-1.79-0.322-0.463-0.806-0.695-1.451-0.695z" fill="#ffffff" fill-rule="nonzero" stroke="none" stroke-width="1" stroke-linecap="butt" stroke-linejoin="miter" stroke-miterlimit="10" stroke-dasharray="" stroke-dashoffset="0" font-family="none" font-weight="none" font-size="none" text-anchor="none" style="mix-blend-mode: normal" data-fill-palette-color="secondary"></path></g></g><g transform="matrix(1,0,0,1,29.331764404296877,41.2644715077207)"><svg viewBox="0 0 316.416 43.32185654510547" height="43.32185654510547" width="316.416"><g><svg viewBox="0 0 316.416 43.32185654510547" height="43.32185654510547" width="316.416"><g><svg viewBox="0 0 316.416 43.32185654510547" height="43.32185654510547" width="316.416"><g><svg viewBox="0 0 316.416 43.32185654510547" height="43.32185654510547" width="316.416"><g id="textblocktransform"><svg viewBox="0 0 316.416 43.32185654510547" height="43.32185654510547" width="316.416" id="textblock"><g><svg viewBox="0 0 316.416 43.32185654510547" height="43.32185654510547" width="316.416"><g transform="matrix(1,0,0,1,0,0)"><svg width="316.416" viewBox="1.2999999523162842 -35.04999923706055 259.631591796875 35.54999923706055" height="43.32185654510547" data-palette-color="#471aa0"><path d="M10.45-12.4L10.45-12.4Q10.45-7.5 14.15-7.5L14.15-7.5Q16.55-7.5 18.15-8.45L18.15-8.45Q18.9-8.45 19.38-5.88 19.85-3.3 19.85-2.38 19.85-1.45 19.6-1.15L19.6-1.15Q16.95 0.5 12.35 0.5 7.75 0.5 4.53-2.93 1.3-6.35 1.3-12.28 1.3-18.2 4.48-21.85 7.65-25.5 12.93-25.5 18.2-25.5 20.25-22.95L20.25-22.95Q20.7-22.4 20.7-21.33 20.7-20.25 20.3-18.7L20.3-18.7Q19.4-15.5 17.95-15L17.95-15Q17.75-14.95 17.38-14.95 17-14.95 16.45-15.55L16.45-15.55Q14.5-17.5 13.33-17.5 12.15-17.5 11.3-16.3 10.45-15.1 10.45-12.4ZM25.62-2.95Q22.5-6.4 22.5-12.5 22.5-18.6 25.62-22.05 28.75-25.5 34.05-25.5 39.35-25.5 42.45-22.05 45.55-18.6 45.55-12.5 45.55-6.4 42.45-2.95 39.35 0.5 34.05 0.5 28.75 0.5 25.62-2.95ZM34.07-17.15Q31.25-17.15 31.25-12.55 31.25-7.95 34.07-7.95 36.9-7.95 36.9-12.55 36.9-17.15 34.07-17.15ZM59.55-16.35L59.55-0.3Q59.55 0.05 55.95 0.05L55.95 0.05Q50.95-0.1 50.95-0.5L50.95-0.5 50.95-16.7 49.65-16.7Q48.35-16.7 47.95-18.9L47.95-18.9Q47.85-19.55 47.85-20.2L47.85-20.2Q47.85-21.75 48.45-23.3L48.45-23.3Q49.35-25.5 51.25-25.5 53.15-25.5 54.65-24.6 56.15-23.7 56.65-22.8L56.65-22.8Q59.8-25.5 64.15-25.5 68.5-25.5 70.45-23.15 72.4-20.8 72.4-15.45L72.4-15.45 72.4-0.45Q72.4 0.15 68.12 0.15 63.85 0.15 63.85-0.45L63.85-0.45 63.85-14.9Q63.85-17.4 62.1-17.4L62.1-17.4Q61.6-17.4 60.7-16.98 59.8-16.55 59.55-16.35L59.55-16.35ZM87.09-16.35L87.09-0.3Q87.09 0.05 83.49 0.05L83.49 0.05Q78.49-0.1 78.49-0.5L78.49-0.5 78.49-16.7 77.19-16.7Q75.89-16.7 75.49-18.9L75.49-18.9Q75.39-19.55 75.39-20.2L75.39-20.2Q75.39-21.75 75.99-23.3L75.99-23.3Q76.89-25.5 78.79-25.5 80.69-25.5 82.19-24.6 83.69-23.7 84.19-22.8L84.19-22.8Q87.34-25.5 91.69-25.5 96.04-25.5 97.99-23.15 99.94-20.8 99.94-15.45L99.94-15.45 99.94-0.45Q99.94 0.15 95.67 0.15 91.39 0.15 91.39-0.45L91.39-0.45 91.39-14.9Q91.39-17.4 89.64-17.4L89.64-17.4Q89.14-17.4 88.24-16.98 87.34-16.55 87.09-16.35L87.09-16.35ZM123.09-1.35L123.09-1.35Q119.94 0.5 114.99 0.5 110.04 0.5 106.64-2.88 103.24-6.25 103.24-12.23 103.24-18.2 106.52-21.85 109.79-25.5 114.79-25.5 119.79-25.5 122.52-22.95 125.24-20.4 125.24-16.75L125.24-16.75Q125.24-8.65 115.94-8.65L115.94-8.65 112.49-8.65Q112.49-7.15 113.32-6.58 114.14-6 115.74-6L115.74-6Q119.24-6 122.39-7.6L122.39-7.6Q122.44-7.65 122.84-6.9L122.84-6.9Q124.04-4.75 124.04-3.28 124.04-1.8 123.09-1.35ZM116.84-15.8L116.84-15.8Q116.84-17.9 114.79-17.9L114.79-17.9Q113.84-17.9 113.17-17.32 112.49-16.75 112.49-15.65L112.49-15.65 112.49-14.1 115.19-14.1Q116.84-14.1 116.84-15.8ZM136.69-12.4L136.69-12.4Q136.69-7.5 140.39-7.5L140.39-7.5Q142.79-7.5 144.39-8.45L144.39-8.45Q145.14-8.45 145.61-5.88 146.09-3.3 146.09-2.38 146.09-1.45 145.84-1.15L145.84-1.15Q143.19 0.5 138.59 0.5 133.99 0.5 130.76-2.93 127.54-6.35 127.54-12.28 127.54-18.2 130.71-21.85 133.89-25.5 139.16-25.5 144.44-25.5 146.49-22.95L146.49-22.95Q146.94-22.4 146.94-21.33 146.94-20.25 146.54-18.7L146.54-18.7Q145.64-15.5 144.19-15L144.19-15Q143.99-14.95 143.61-14.95 143.24-14.95 142.69-15.55L142.69-15.55Q140.74-17.5 139.56-17.5 138.39-17.5 137.54-16.3 136.69-15.1 136.69-12.4ZM161.19-18L161.19-0.3Q161.19 0.3 156.99 0.3L156.99 0.3Q151.99 0.1 151.99-0.35L151.99-0.35 151.99-18.05 149.44-18.05Q148.44-18.05 148.44-21.5L148.44-21.5Q148.44-22.4 148.61-23.7 148.78-25 149.34-25L149.34-25 151.99-25 151.99-29.4Q151.99-30.4 156.21-30.4 160.44-30.4 160.44-29.6L160.44-29.6 160.44-26.4 160.49-25 164.74-25Q165.59-25 165.59-21.5 165.59-18 164.74-18L164.74-18 161.19-18ZM195.73-34.05L195.73-1.1Q195.73-0.05 191.03-0.05 186.33-0.05 185.93-0.8L185.93-0.8 177.58-16.4 177.58-0.85Q177.58 0.05 172.96 0.05 168.33 0.05 168.33-0.85L168.33-0.85 168.33-34.3Q168.33-35.05 172.28-35.05L172.28-35.05Q173.83-35.05 175.91-34.77 177.98-34.5 178.43-33.75L178.43-33.75 186.43-18.35 186.43-34.05Q186.43-35 191.08-35 195.73-35 195.73-34.05L195.73-34.05ZM202.66-2.95Q199.53-6.4 199.53-12.5 199.53-18.6 202.66-22.05 205.78-25.5 211.08-25.5 216.38-25.5 219.48-22.05 222.58-18.6 222.58-12.5 222.58-6.4 219.48-2.95 216.38 0.5 211.08 0.5 205.78 0.5 202.66-2.95ZM211.11-17.15Q208.28-17.15 208.28-12.55 208.28-7.95 211.11-7.95 213.93-7.95 213.93-12.55 213.93-17.15 211.11-17.15ZM250.28-8.4L252.08-24.75Q252.08-25.2 254.83-25.2L254.83-25.2Q261.03-25.2 260.93-24.8L260.93-24.8 256.03-0.5Q255.88 0.3 250.48 0.3 245.08 0.3 244.93-0.5L244.93-0.5 242.88-11.7 240.33-0.5Q240.18 0.25 234.6 0.25 229.03 0.25 228.88-0.65L228.88-0.65 224.43-25Q224.28-25.3 228.73-25.3L228.73-25.3Q233.13-25.25 233.13-25.1L233.13-25.1 235.43-8.2 239.58-24.9Q239.68-25.2 242.88-25.2 246.08-25.2 246.18-24.9L246.18-24.9 250.28-8.4Z" opacity="1" transform="matrix(1,0,0,1,0,0)" fill="#ffffff" class="undefined-text-0" data-fill-palette-color="primary" id="text-0"></path></svg></g></svg></g></svg></g></svg></g></svg></g></svg></g></svg></g></svg></g><defs></defs></svg><rect width="375.07952880859375" height="125.85079956054688" fill="none" stroke="none" visibility="hidden"></rect></g></svg></g></svg>